<svg width="560" height="282" viewBox="0 0 560 282" fill="none" xmlns="http://www.w3.org/2000/svg">
<path d="M118.795 92.1244C118.795 92.1244 168.321 115.163 191.178 104.924C244.513 87.0048 236.894 20.4496 179.75 7.65058C130.224 -5.14847 69.27 7.65056 31.1736 56.287C-29.7806 145.881 12.1253 253.393 118.795 255.953C159.594 256.932 188.445 242.838 205.35 218.826C213.701 206.964 219.136 192.681 221.656 176.598C214.036 168.919 210.227 163.799 194.988 163.799C183.559 199.637 156.892 225.235 126.415 225.235C37.4875 225.235 38.7928 53.7273 126.415 30.6889C179.75 10.2104 206.417 92.1244 118.795 92.1244Z" fill="#212529"/>
<path fill-rule="evenodd" clip-rule="evenodd" d="M194.988 163.799C210.227 163.799 214.036 168.919 221.656 176.598C219.136 192.681 213.701 206.964 205.35 218.826C244.513 245.713 316.897 245.713 335.945 189.397C335.945 186.838 323.464 183.594 320.706 186.838C290.229 222.675 240.704 217.555 236.894 186.838C259.752 191.957 277.379 189.251 309.277 168.919C351.183 135.641 328.325 94.6843 282.61 94.6843C248.323 94.6843 198.798 120.282 194.988 163.799ZM236.894 166.359C240.704 148.44 259.752 125.402 282.61 115.163C294.039 112.603 297.155 137.538 282.61 148.44C268.064 159.343 257.727 162.878 236.894 166.359Z" fill="#212529"/>
<path d="M278.8 248.273C278.8 263.632 294.039 278.991 313.087 278.991C320.265 278.991 356.736 280.541 377.851 243.154C385.47 229.662 385.47 222.675 389.28 207.316C391.159 199.741 393.089 161.487 393.089 128.544C390.44 128.021 387.92 127.048 385.47 125.402V104.924L387.375 102.364L389.28 99.8039C393.089 97.2441 385.47 84.445 366.422 84.445C343.564 84.445 347.374 89.5647 335.945 92.1244C351.183 120.282 347.374 158.68 347.374 189.397C343.564 232.914 331.715 248.287 313.087 255.953C301.658 258.512 290.229 255.953 278.8 248.273Z" fill="#212529"/>
<path fill-rule="evenodd" clip-rule="evenodd" d="M328.325 56.287C328.325 30.6889 389.28 20.4497 400.709 43.488C400.709 71.646 328.325 79.3254 328.325 56.287ZM374.041 48.6076C366.422 48.6076 347.374 53.7273 347.374 58.8469C354.993 61.4067 377.851 53.7273 374.041 48.6076Z" fill="#212529"/>
<path d="M385.47 104.924V125.402C387.92 127.048 390.44 128.021 393.089 128.544C398.679 129.649 404.844 128.752 412.138 127.962C415.841 177.233 419.757 218.826 427.376 238.034C443.351 243.57 465.473 240.594 469.282 232.914C474.362 222.675 461.663 161.239 465.472 122.842C484.521 120.282 503.569 122.842 514.998 125.402C526.427 112.603 526.427 107.483 526.427 94.6843C514.998 92.1244 507.379 87.0048 465.472 92.1244C465.46 62.7159 473.092 33.2487 495.95 33.2487C507.379 33.2487 507.379 48.6076 507.379 58.8469C514.998 61.4067 553.094 56.2871 556.904 48.6076C560.713 -2.58866 450.234 -15.3877 423.566 48.6076C414.836 69.4194 412.134 80.6728 412.138 99.8039C403.799 100.493 396.899 102.364 387.375 102.364L385.47 104.924Z" fill="#212529"/>
<path d="M194.988 163.799C210.227 163.799 214.036 168.919 221.656 176.598C219.136 192.681 213.701 206.964 205.35 218.826M194.988 163.799C183.559 199.637 156.892 225.235 126.415 225.235C37.4875 225.235 38.7928 53.7273 126.415 30.6889C179.75 10.2104 206.417 92.1244 118.795 92.1244C118.795 92.1244 168.321 115.163 191.178 104.924C244.513 87.0048 236.894 20.4497 179.75 7.65058C130.224 -5.14847 69.27 7.65056 31.1736 56.287C-29.7806 145.881 12.1253 253.393 118.795 255.953C159.594 256.932 188.445 242.838 205.35 218.826M194.988 163.799C198.798 120.282 248.323 94.6843 282.61 94.6843C328.325 94.6843 351.183 135.641 309.277 168.919C277.379 189.251 259.752 191.957 236.894 186.838C240.704 217.555 290.229 222.675 320.706 186.838C323.464 183.594 335.945 186.838 335.945 189.397C316.897 245.713 244.513 245.713 205.35 218.826M385.47 104.924C385.47 120.282 385.47 125.402 385.47 125.402M385.47 104.924L387.375 102.364M385.47 104.924V125.402M385.47 125.402C387.92 127.048 390.44 128.021 393.089 128.544M393.089 128.544C398.679 129.649 404.844 128.752 412.138 127.962C415.841 177.233 419.757 218.826 427.376 238.034C443.351 243.57 465.472 240.594 469.282 232.914C474.362 222.675 461.663 161.239 465.472 122.842C484.521 120.282 503.569 122.842 514.998 125.402C526.427 112.603 526.427 107.483 526.427 94.6843C514.998 92.1244 507.379 87.0048 465.472 92.1244C465.46 62.7159 473.092 33.2487 495.95 33.2487C507.379 33.2487 507.379 48.6076 507.379 58.8469C514.998 61.4067 553.094 56.2871 556.904 48.6076C560.713 -2.58866 450.234 -15.3877 423.566 48.6076C414.836 69.4194 412.134 80.6728 412.138 99.8039C403.799 100.493 396.899 102.364 387.375 102.364M393.089 128.544C393.089 161.487 391.159 199.741 389.28 207.316C385.47 222.675 385.47 229.662 377.851 243.154C356.736 280.541 320.265 278.991 313.087 278.991C294.039 278.991 278.8 263.632 278.8 248.273C290.229 255.953 301.658 258.512 313.087 255.953C331.715 248.287 343.564 232.914 347.374 189.397C347.374 158.68 351.183 120.282 335.945 92.1244C347.374 89.5647 343.564 84.445 366.422 84.445C385.47 84.445 393.089 97.2441 389.28 99.8039L387.375 102.364M282.61 115.163C259.752 125.402 240.704 148.44 236.894 166.359C257.727 162.878 268.064 159.343 282.61 148.44C297.155 137.538 294.039 112.603 282.61 115.163ZM328.325 56.287C328.325 30.6889 389.28 20.4497 400.709 43.488C400.709 71.646 328.325 79.3254 328.325 56.287ZM374.041 48.6076C366.422 48.6076 347.374 53.7273 347.374 58.8469C354.993 61.4067 377.851 53.7273 374.041 48.6076Z" stroke="#17A2B8" stroke-width="5"/>
</svg>
