<svg width="84" height="43" viewBox="0 0 84 43" fill="none" xmlns="http://www.w3.org/2000/svg">
<path fill-rule="evenodd" clip-rule="evenodd" d="M0 40.6875V18.375C0 16.9255 1.88081 15.75 4.2 15.75H12.6V42H2.1C0.93975 42 0 41.4127 0 40.6875ZM71.4 15.75H79.8C82.1192 15.75 84 16.9255 84 18.375V40.6875C84 41.4127 83.0602 42 81.9 42H71.4V15.75Z" fill="#17A2B8"/>
<path fill-rule="evenodd" clip-rule="evenodd" d="M66.78 9.19079L44.3297 0.440515C43.6396 0.153267 42.8291 0 42 0C41.1709 0 40.3603 0.153267 39.6703 0.440515L17.3331 9.19079C16.7579 9.43046 16.2863 9.75517 15.96 10.1361C15.6337 10.517 15.463 10.9424 15.4628 11.3745V42H33.6H50.4H68.6503V11.3753C68.6503 10.4975 67.9481 9.67723 66.78 9.19079Z" fill="#17A2B8"/>
<path d="M28.0328 20.3333C28.0328 20.3333 32.3238 23.0044 34.3043 21.8172C38.9254 19.7397 38.2652 12.0231 33.314 10.5392C29.023 9.05525 23.7418 10.5392 20.441 16.1782C15.1598 26.5659 18.7906 39.031 28.0328 39.3278C31.5677 39.4414 34.0675 37.8073 35.5321 35.0234C36.2557 33.648 36.7266 31.992 36.9449 30.1273C36.2847 29.237 35.9546 28.6434 34.6343 28.6434C33.6441 32.7985 31.3336 35.7664 28.693 35.7664C20.9881 35.7664 21.1012 15.8814 28.693 13.2103C33.314 10.836 35.6246 20.3333 28.0328 20.3333Z" fill="#212529"/>
<path fill-rule="evenodd" clip-rule="evenodd" d="M34.6343 28.6434C35.9546 28.6434 36.2847 29.237 36.9449 30.1273C36.7266 31.992 36.2557 33.648 35.5321 35.0234C38.9253 38.1407 45.1968 38.1407 46.8472 31.6113C46.8472 31.3145 45.7659 30.9384 45.5269 31.3145C42.8863 35.4696 38.5953 34.876 38.2652 31.3145C40.2457 31.9081 41.7729 31.5943 44.5367 29.237C48.1675 25.3787 46.187 20.6301 42.2261 20.6301C39.2554 20.6301 34.9644 23.598 34.6343 28.6434ZM38.2652 28.9402C38.5953 26.8627 40.2457 24.1915 42.2261 23.0044C43.2163 22.7076 43.4864 25.5986 42.2261 26.8627C40.9659 28.1267 40.0702 28.5365 38.2652 28.9402Z" fill="#212529"/>
<path d="M41.896 38.4375C41.896 40.2182 43.2163 41.9989 44.8667 41.9989C45.4886 41.9989 48.6486 42.1787 50.478 37.8439C51.1382 36.2797 51.1382 35.4696 51.4683 33.6888C51.6311 32.8106 51.7984 28.3753 51.7984 24.5559C51.5688 24.4952 51.3505 24.3824 51.1382 24.1915V21.8172L51.3032 21.5204L51.4683 21.2236C51.7984 20.9269 51.1382 19.4429 49.4878 19.4429C47.5073 19.4429 47.8374 20.0365 46.8472 20.3333C48.1675 23.598 47.8374 28.0498 47.8374 31.6113C47.5073 36.6567 46.4807 38.4391 44.8667 39.3278C43.8765 39.6246 42.8863 39.3278 41.896 38.4375Z" fill="#212529"/>
<path fill-rule="evenodd" clip-rule="evenodd" d="M46.187 16.1782C46.187 13.2103 51.4683 12.0232 52.4585 14.6943C52.4585 17.959 46.187 18.8493 46.187 16.1782ZM50.148 15.2878C49.4878 15.2878 47.8374 15.8814 47.8374 16.475C48.4976 16.7718 50.478 15.8814 50.148 15.2878Z" fill="#212529"/>
<path d="M51.1382 21.8172V24.1915C51.3505 24.3824 51.5688 24.4952 51.7984 24.5559C52.2827 24.6839 52.8168 24.58 53.4487 24.4883C53.7696 30.2009 54.1089 35.0234 54.769 37.2503C56.1532 37.8922 58.0698 37.5471 58.3999 36.6567C58.84 35.4696 57.7397 28.3466 58.0698 23.8948C59.7202 23.598 61.3706 23.8948 62.3608 24.1915C63.351 22.7076 63.351 22.114 63.351 20.6301C62.3608 20.3333 61.7007 19.7397 58.0698 20.3333C58.0688 16.9236 58.73 13.5071 60.7104 13.5071C61.7007 13.5071 61.7007 15.2878 61.7007 16.475C62.3608 16.7718 65.6616 16.1782 65.9917 15.2878C66.3217 9.35204 56.7495 7.86809 54.439 15.2878C53.6826 17.7008 53.4484 19.0055 53.4487 21.2236C52.7263 21.3035 52.1284 21.5204 51.3032 21.5204L51.1382 21.8172Z" fill="#212529"/>
<path d="M34.6343 28.6434C35.9546 28.6434 36.2847 29.237 36.9449 30.1273C36.7266 31.992 36.2557 33.648 35.5321 35.0234M34.6343 28.6434C33.6441 32.7985 31.3336 35.7664 28.693 35.7664C20.9881 35.7664 21.1012 15.8814 28.693 13.2103C33.314 10.836 35.6246 20.3333 28.0328 20.3333C28.0328 20.3333 32.3238 23.0044 34.3043 21.8172C38.9253 19.7397 38.2652 12.0231 33.314 10.5392C29.023 9.05525 23.7418 10.5392 20.441 16.1782C15.1598 26.5659 18.7906 39.031 28.0328 39.3278C31.5677 39.4414 34.0675 37.8073 35.5321 35.0234M34.6343 28.6434C34.9644 23.598 39.2554 20.6301 42.2261 20.6301C46.187 20.6301 48.1675 25.3787 44.5367 29.237C41.7729 31.5943 40.2457 31.9081 38.2652 31.3145C38.5953 34.876 42.8863 35.4696 45.5269 31.3145C45.7659 30.9384 46.8472 31.3145 46.8472 31.6113C45.1968 38.1407 38.9253 38.1407 35.5321 35.0234M51.1382 21.8172C51.1382 23.598 51.1382 24.1915 51.1382 24.1915M51.1382 21.8172L51.3032 21.5204M51.1382 21.8172V24.1915M51.1382 24.1915C51.3505 24.3824 51.5688 24.4952 51.7984 24.5559M51.7984 24.5559C52.2827 24.6839 52.8168 24.58 53.4487 24.4883C53.7696 30.2009 54.1089 35.0234 54.769 37.2503C56.1532 37.8922 58.0698 37.5471 58.3999 36.6567C58.84 35.4696 57.7397 28.3466 58.0698 23.8948C59.7202 23.598 61.3706 23.8948 62.3608 24.1915C63.351 22.7076 63.351 22.114 63.351 20.6301C62.3608 20.3333 61.7007 19.7397 58.0698 20.3333C58.0688 16.9236 58.73 13.5071 60.7104 13.5071C61.7007 13.5071 61.7007 15.2878 61.7007 16.475C62.3608 16.7718 65.6616 16.1782 65.9917 15.2878C66.3217 9.35204 56.7495 7.86809 54.439 15.2878C53.6826 17.7008 53.4484 19.0055 53.4487 21.2236C52.7263 21.3035 52.1284 21.5204 51.3032 21.5204M51.7984 24.5559C51.7984 28.3753 51.6311 32.8106 51.4683 33.6888C51.1382 35.4696 51.1382 36.2797 50.478 37.8439C48.6486 42.1787 45.4886 41.9989 44.8667 41.9989C43.2163 41.9989 41.896 40.2182 41.896 38.4375C42.8863 39.3278 43.8765 39.6246 44.8667 39.3278C46.4807 38.4391 47.5073 36.6567 47.8374 31.6113C47.8374 28.0498 48.1675 23.598 46.8472 20.3333C47.8374 20.0365 47.5073 19.4429 49.4878 19.4429C51.1382 19.4429 51.7984 20.9269 51.4683 21.2236L51.3032 21.5204M42.2261 23.0044C40.2457 24.1915 38.5953 26.8627 38.2652 28.9402C40.0702 28.5365 40.9659 28.1267 42.2261 26.8627C43.4864 25.5986 43.2163 22.7076 42.2261 23.0044ZM46.187 16.1782C46.187 13.2103 51.4683 12.0232 52.4585 14.6943C52.4585 17.959 46.187 18.8493 46.187 16.1782ZM50.148 15.2878C49.4878 15.2878 47.8374 15.8814 47.8374 16.475C48.4976 16.7718 50.478 15.8814 50.148 15.2878Z" stroke="#E5E5E5"/>
</svg>
