<svg width="102" height="68" viewBox="0 0 102 68" fill="none" xmlns="http://www.w3.org/2000/svg">
<path d="M21.9017 22.362C21.9017 22.362 30.8413 27.8841 34.9672 25.4298C44.5945 21.1349 43.2192 5.18247 32.9042 2.11469C23.9647 -0.95309 12.9621 2.11468 6.08548 13.7723C-4.91708 35.2467 2.64717 61.0161 21.9017 61.6297C29.2661 61.8643 34.4739 58.4863 37.5252 52.731C39.0326 49.8877 40.0137 46.4642 40.4685 42.6094C39.0932 40.7687 38.4055 39.5416 35.6549 39.5416C33.5919 48.1314 28.7783 54.267 23.277 54.267C7.22518 54.267 7.46079 13.1587 23.277 7.6367C32.9042 2.72825 37.7179 22.362 21.9017 22.362Z" fill="#E5E5E5"/>
<path fill-rule="evenodd" clip-rule="evenodd" d="M35.6549 39.5416C38.4055 39.5416 39.0932 40.7687 40.4685 42.6094C40.0137 46.4642 39.0326 49.8877 37.5252 52.731C44.5945 59.1754 57.66 59.1754 61.0983 45.6772C61.0983 45.0636 58.8456 44.2862 58.3477 45.0636C52.8464 53.6534 43.9068 52.4263 43.2191 45.0636C47.3451 46.2908 50.5268 45.642 56.2847 40.7687C63.849 32.7925 59.723 22.9756 51.4711 22.9756C45.2821 22.9756 36.3425 29.1112 35.6549 39.5416ZM43.2191 40.1552C43.9068 35.8603 47.3451 30.3383 51.4711 27.8841C53.5341 27.2705 54.0966 33.2471 51.4711 35.8603C48.8455 38.4735 46.9797 39.3207 43.2191 40.1552Z" fill="#E5E5E5"/>
<path d="M50.7834 59.789C50.7834 63.4703 53.5341 67.1517 56.9724 67.1517C58.268 67.1517 64.8513 67.5232 68.6626 58.5619C70.0379 55.3281 70.0379 53.6534 70.7256 49.9721C71.0647 48.1565 71.4132 38.9873 71.4132 31.0914C70.935 30.966 70.4801 30.7329 70.0379 30.3383V25.4298L70.3817 24.8163L70.7256 24.2027C71.4132 23.5892 70.0379 20.5214 66.5996 20.5214C62.4736 20.5214 63.1613 21.7485 61.0983 22.362C63.849 29.1112 63.1613 38.3145 63.1613 45.6772C62.4736 56.1077 60.3348 59.7923 56.9724 61.6297C54.9094 62.2432 52.8464 61.6297 50.7834 59.789Z" fill="#E5E5E5"/>
<path fill-rule="evenodd" clip-rule="evenodd" d="M59.723 13.7723C59.723 7.6367 70.7256 5.18247 72.7886 10.7045C72.7886 17.4536 59.723 19.2943 59.723 13.7723ZM67.9749 11.9316C66.5996 11.9316 63.1613 13.1587 63.1613 14.3858C64.5366 14.9994 68.6626 13.1587 67.9749 11.9316Z" fill="#E5E5E5"/>
<path d="M70.0379 25.4298V30.3383C70.4801 30.7329 70.935 30.966 71.4132 31.0914C72.4222 31.3561 73.535 31.1413 74.8515 30.9518C75.52 42.7615 76.2269 52.731 77.6022 57.3348C80.4858 58.6618 84.4788 57.9483 85.1664 56.1077C86.0833 53.6534 83.7911 38.9281 84.4788 29.7247C87.9171 29.1112 91.3554 29.7247 93.4184 30.3383C95.4813 27.2705 95.4813 26.0434 95.4813 22.9756C93.4184 22.362 92.043 21.1349 84.4788 22.362C84.4766 15.3132 85.8541 8.25026 89.9801 8.25026C92.0431 8.25026 92.043 11.9316 92.043 14.3858C93.4184 14.9994 100.295 13.7723 100.983 11.9316C101.67 -0.339533 81.7281 -3.40731 76.9145 11.9316C75.3387 16.9199 74.8509 19.6172 74.8515 24.2027C73.3464 24.3678 72.1009 24.8163 70.3817 24.8163L70.0379 25.4298Z" fill="#E5E5E5"/>
<path d="M35.6549 39.5416C38.4055 39.5416 39.0932 40.7687 40.4685 42.6094C40.0137 46.4642 39.0326 49.8877 37.5252 52.731M35.6549 39.5416C33.5919 48.1314 28.7783 54.267 23.277 54.267C7.22518 54.267 7.46079 13.1587 23.277 7.6367C32.9042 2.72825 37.7179 22.362 21.9017 22.362C21.9017 22.362 30.8413 27.8841 34.9672 25.4298C44.5945 21.1349 43.2192 5.18247 32.9042 2.11469C23.9647 -0.95309 12.9621 2.11468 6.08548 13.7723C-4.91708 35.2467 2.64717 61.0161 21.9017 61.6297C29.266 61.8643 34.4739 58.4863 37.5252 52.731M35.6549 39.5416C36.3425 29.1112 45.2821 22.9756 51.4711 22.9756C59.723 22.9756 63.849 32.7925 56.2847 40.7687C50.5268 45.642 47.3451 46.2908 43.2191 45.0636C43.9068 52.4263 52.8464 53.6534 58.3477 45.0636C58.8456 44.2862 61.0983 45.0636 61.0983 45.6772C57.66 59.1754 44.5945 59.1754 37.5252 52.731M70.0379 25.4298C70.0379 29.1112 70.0379 30.3383 70.0379 30.3383M70.0379 25.4298L70.3817 24.8163M70.0379 25.4298V30.3383M70.0379 30.3383C70.4801 30.7329 70.935 30.966 71.4132 31.0914M71.4132 31.0914C72.4222 31.3561 73.535 31.1413 74.8515 30.9518C75.52 42.7615 76.2269 52.731 77.6022 57.3348C80.4858 58.6618 84.4788 57.9483 85.1664 56.1077C86.0833 53.6534 83.7911 38.9281 84.4788 29.7247C87.9171 29.1112 91.3554 29.7247 93.4184 30.3383C95.4813 27.2705 95.4813 26.0434 95.4813 22.9756C93.4184 22.362 92.043 21.1349 84.4788 22.362C84.4766 15.3132 85.8541 8.25026 89.9801 8.25026C92.043 8.25026 92.043 11.9316 92.043 14.3858C93.4184 14.9994 100.295 13.7723 100.983 11.9316C101.67 -0.339533 81.7281 -3.40731 76.9145 11.9316C75.3387 16.9199 74.8509 19.6172 74.8515 24.2027C73.3464 24.3678 72.1009 24.8163 70.3817 24.8163M71.4132 31.0914C71.4132 38.9873 71.0647 48.1565 70.7256 49.9721C70.0379 53.6534 70.0379 55.3281 68.6626 58.5619C64.8513 67.5232 58.268 67.1517 56.9724 67.1517C53.5341 67.1517 50.7834 63.4703 50.7834 59.789C52.8464 61.6297 54.9094 62.2432 56.9724 61.6297C60.3348 59.7923 62.4736 56.1077 63.1613 45.6772C63.1613 38.3145 63.849 29.1112 61.0983 22.362C63.1613 21.7485 62.4736 20.5214 66.5996 20.5214C70.0379 20.5214 71.4132 23.5892 70.7256 24.2027L70.3817 24.8163M51.4711 27.8841C47.3451 30.3383 43.9068 35.8603 43.2191 40.1552C46.9797 39.3207 48.8455 38.4735 51.4711 35.8603C54.0966 33.2471 53.5341 27.2705 51.4711 27.8841ZM59.723 13.7723C59.723 7.6367 70.7256 5.18247 72.7885 10.7045C72.7885 17.4536 59.723 19.2943 59.723 13.7723ZM67.9749 11.9316C66.5996 11.9316 63.1613 13.1587 63.1613 14.3858C64.5366 14.9994 68.6626 13.1587 67.9749 11.9316Z" stroke="#212529"/>
</svg>
