<svg width="52" height="42" viewBox="0 0 52 42" fill="none" xmlns="http://www.w3.org/2000/svg">
<path fill-rule="evenodd" clip-rule="evenodd" d="M27.1852 40.6321L50.5267 21.9634C50.8422 21.711 50.9969 21.3799 50.9938 21.0501C50.9938 21.0402 51 21.0327 51 21.0227V2.28392C51 1.59433 50.3003 1.03467 49.4381 1.03467C49.4256 1.03467 49.4162 1.03967 49.4037 1.03967C48.9914 1.03842 48.5774 1.16209 48.2619 1.41319L26.0106 19.21L3.71247 1.37571C3.08613 0.874763 2.07088 0.874763 1.44455 1.37571C1.07281 1.67303 0.949406 2.07654 1.01813 2.46256V20.8403C0.949406 21.2263 1.07281 21.6298 1.44455 21.9271L24.8298 40.6309C25.1547 40.8907 25.5827 41.0094 26.0091 40.9994C26.4324 41.0094 26.8603 40.8907 27.1852 40.6321Z" fill="#E6ECF2" fill-opacity="0.6" stroke="#212529" stroke-width="2"/>
</svg>
